<?xml version="1.0" encoding="UTF-8" standalone="no"?>
<!-- Created with Inkscape (http://www.inkscape.org/) -->

<svg
   version="1.1"
   id="svg1"
   width="1024"
   height="1024"
   viewBox="0 0 1024 1024"
   sodipodi:docname="logo.svg"
   inkscape:version="1.3 (0e150ed6c4, 2023-07-21)"
   inkscape:export-filename="logo.png"
   inkscape:export-xdpi="56.25"
   inkscape:export-ydpi="56.25"
   xmlns:inkscape="http://www.inkscape.org/namespaces/inkscape"
   xmlns:sodipodi="http://sodipodi.sourceforge.net/DTD/sodipodi-0.dtd"
   xmlns="http://www.w3.org/2000/svg"
   xmlns:svg="http://www.w3.org/2000/svg">
  <defs
     id="defs1" />
  <sodipodi:namedview
     id="namedview1"
     pagecolor="#ffffff"
     bordercolor="#000000"
     borderopacity="0.25"
     inkscape:showpageshadow="2"
     inkscape:pageopacity="0.0"
     inkscape:pagecheckerboard="0"
     inkscape:deskcolor="#d1d1d1"
     inkscape:zoom="0.44702148"
     inkscape:cx="142.05134"
     inkscape:cy="269.56199"
     inkscape:window-width="2129"
     inkscape:window-height="1104"
     inkscape:window-x="647"
     inkscape:window-y="285"
     inkscape:window-maximized="0"
     inkscape:current-layer="g1" />
  <g
     inkscape:groupmode="layer"
     inkscape:label="Image"
     id="g1">
    <g
       id="g2"
       transform="matrix(1.2073624,0,0,1.2073624,-77.867358,7.8764533)">
      <path
         style="fill:#000000"
         d="m 467.21386,570.0212 c -18.25128,-2.7288 -33.75742,-7.89642 -76.37172,-25.45186 -49.77963,-20.50727 -68.9103,-32.11713 -91.40302,-55.46987 -26.93169,-27.96142 -40.56505,-61.33222 -42.7287,-104.58828 -0.94005,-18.79363 1.45299,-43.45686 6.1128,-63 4.54344,-19.05509 14.07755,-45.12938 21.86221,-59.78971 1.95688,-3.68524 3.13271,-6.8422 2.61297,-7.01544 -2.51614,-0.83872 -14.22963,-10.57198 -19.02306,-15.80712 -13.98363,-15.27221 -21.06148,-33.38153 -21.06148,-53.88773 0,-37.14749 23.45328,-67.95715 59.16342,-77.72069 6.69574,-1.83069 10.79687,-2.26748 20.83658,-2.21921 15.2078,0.0731 22.91498,1.8595 35.5,8.22821 11.88778,6.01588 26.06229,19.87112 31.73611,31.02129 2.04573,4.02027 3.95415,7.68923 4.24092,8.15324 0.28678,0.46401 3.55926,-0.42984 7.27219,-1.98634 15.25786,-6.39622 40.70359,-12.86178 58.75807,-14.92996 13.02606,-1.49216 37.63103,-1.2781 50.69149,0.441 17.76551,2.33841 39.45607,8.13722 57.58697,15.39545 l 5.28575,2.11601 2.0036,-4.67421 c 6.28595,-14.66453 19.59614,-28.53862 34.21737,-35.66704 11.37509,-5.54581 19.42802,-7.66783 31.70753,-8.35521 22.89987,-1.28189 44.81661,7.34425 60.62135,23.85976 21.75288,22.73115 28.6219,53.79289 18.46611,83.50375 -5.0339,14.72671 -18.47993,31.71285 -31.72914,40.08289 -2.39511,1.51308 -4.35555,3.09755 -4.35653,3.52104 -9.9e-4,0.42349 1.96858,4.69849 4.3768,9.5 12.67245,25.2663 21.08947,52.9354 25.1667,82.73002 2.33469,17.06088 1.62964,48.78672 -1.4158,63.70819 -2.88405,14.13069 -6.18284,24.06169 -12.16627,36.62663 -6.6424,13.94871 -10.94604,20.83369 -20.26235,32.41581 -24.24131,30.13699 -58.12624,49.76219 -134.46415,77.87783 -31.14562,11.4711 -58.04081,15.14867 -83.23672,11.38155 z m 31.78941,-23.54581 c 18.06381,-1.92682 35.31472,-7.07198 71.21059,-21.23885 44.4934,-17.56003 67.47758,-31.03428 87.64822,-51.38294 18.29805,-18.45954 29.75766,-39.9488 35.49728,-66.56516 2.92567,-13.56722 3.59746,-40.51072 1.40318,-56.27725 -7.10301,-51.03723 -31.5422,-100.16217 -66.67928,-134.03129 -30.98501,-29.86688 -71.65454,-49.48428 -115.3694,-55.64972 -12.76709,-1.80063 -38.62927,-1.52954 -52.30376,0.54826 -22.2728,3.38429 -40.86827,9.17513 -60.19624,18.74579 -42.28684,20.93923 -73.6781,52.72349 -95.51939,96.71522 -15.91291,32.05106 -23.85087,65.03182 -23.74876,98.67174 0.18458,60.81236 28.48791,103.86983 86.76815,131.9992 28.47262,13.74251 71.9805,30.48629 91.33964,35.15159 17.27568,4.16322 25.54954,4.84944 39.94977,3.31341 z m -55.28941,-46.66176 c -1.65,-0.21884 -5.45578,-1.09111 -8.45729,-1.93836 -19.2947,-5.44646 -30.25065,-17.51813 -23.24669,-25.61408 2.2442,-2.5941 5.54109,-2.14267 11.43456,1.56567 11.1251,7.00024 15.14271,8.18433 27.76942,8.18433 9.88403,0 12.21921,-0.32551 16.61826,-2.31647 7.21491,-3.26539 11.22203,-7.69864 11.94998,-13.22079 0.39216,-2.97483 0.14545,-5.05051 -0.73997,-6.22567 -0.73055,-0.96962 -5.61168,-3.69102 -10.84695,-6.04758 -14.41108,-6.48684 -24.39953,-14.38536 -28.06081,-22.18949 -4.57292,-9.74732 -0.75908,-16.91414 10.91381,-20.50879 10.62441,-3.27177 32.92056,-4.63903 51.99626,-3.18856 23.44978,1.78307 31.82121,4.9654 34.23238,13.01314 3.27238,10.92225 -8.25719,23.46785 -31.30798,34.06697 -8.23229,3.78533 -8.57184,4.07376 -9.20453,7.81865 -1.23791,7.32709 1.97682,11.66205 12.27597,16.55379 6.03847,2.86807 6.78367,2.98282 16.3726,2.52108 9.82479,-0.4731 10.29253,-0.60819 21.22426,-6.13002 6.14795,-3.10544 12.16778,-5.64626 13.3774,-5.64626 3.40452,0 6.19932,3.45846 6.19932,7.67142 0,3.03583 -0.76492,4.40434 -4.41852,7.9051 -5.68408,5.44631 -17.05575,11.02324 -26.58148,13.03619 -13.67043,2.88879 -30.65051,0.17047 -41.35304,-6.62016 l -4.85305,-3.0792 -9.14695,4.50754 c -11.76243,5.79643 -23.00113,7.62511 -36.14696,5.88155 z M 369.1228,408.67028 c -11.39163,-3.75771 -20.7183,-12.93799 -25.19438,-24.79892 -1.85174,-4.90681 -2.20161,-7.81239 -2.1506,-17.86017 0.0528,-10.40325 0.42748,-13.06068 2.81571,-19.97131 7.56538,-21.89139 26.83081,-50.4099 41.62033,-61.61037 8.65981,-6.55828 15.54674,-9.11597 25,-9.28456 17.12895,-0.30549 29.91104,8.22617 36.08244,24.08393 3.04653,7.82823 3.79832,24.21055 1.53046,33.35049 -1.83981,7.41482 -19.62612,44.10482 -25.81614,53.25413 -6.52312,9.64165 -14.74505,17.28958 -22.49515,20.92471 -5.9095,2.7718 -8.04764,3.22736 -16.30161,3.4733 -7.14598,0.21293 -10.88542,-0.17393 -15.09106,-1.56123 z m 47.83658,-55.69723 c 4.78895,-2.00095 7.02266,-4.09066 9.44422,-8.83537 5.06238,-9.91903 0.31779,-20.79711 -10.32029,-23.66164 -9.75951,-2.62797 -19.86945,5.78542 -19.86945,16.53515 0,6.68135 4.3439,13.33481 10.5,16.08264 3.93406,1.756 5.80659,1.73393 10.24552,-0.12078 z m 163.6675,55.77029 c -15.89176,-5.66833 -25.68674,-17.34661 -41.47205,-49.44594 -10.7137,-21.78625 -12.4411,-27.47058 -12.39449,-40.78621 0.0539,-15.38237 3.94362,-25.5882 12.89844,-33.84246 5.49909,-5.06889 10.69506,-7.72888 17.52082,-8.96951 20.52426,-3.7304 38.12928,7.25437 57.00099,35.56613 17.86658,26.80385 24.94492,49.38392 20.6834,65.98049 -3.58853,13.97556 -10.71737,23.21242 -22.35327,28.9632 -6.9143,3.41723 -8.40799,3.76888 -17.18468,4.04564 -7.34394,0.23158 -10.81259,-0.12506 -14.69916,-1.51134 z M 568.3654,353.48579 c 4.65441,-1.29279 10.51877,-7.70029 11.41373,-12.47082 2.29318,-12.22369 -6.8742,-22.73426 -18.33053,-21.01627 -6.65648,0.9982 -12.75437,7.12636 -13.75928,13.82757 -1.21095,8.0752 2.53502,15.2171 10.02454,19.11233 3.50768,1.82431 5.65621,1.93468 10.65154,0.54719 z"
         id="path1"
         sodipodi:nodetypes="sssssssssssssssssscssssssssssssssssssssssssssssssssssssssssssssssssssscssssssssssssssssssssssssssssssssssss" />
      <text
         xml:space="preserve"
         style="font-weight:bold;font-size:145.885px;font-family:'Fira Code';-inkscape-font-specification:'Fira Code Bold';fill:none;stroke:#000000;stroke-width:7.59547"
         x="226.25847"
         y="699.61188"
         id="text1"><tspan
           sodipodi:role="line"
           id="tspan1"
           x="226.25847"
           y="699.61188"
           style="font-style:normal;font-variant:normal;font-weight:bold;font-stretch:normal;font-family:'Source Sans 3';-inkscape-font-specification:'Source Sans 3 Bold';fill:#000000;fill-opacity:1;stroke:none;stroke-width:7.59547">ggviews</tspan></text>
    </g>
  </g>
</svg>
